HIERARCHY
ROOT Hips
{
 OFFSET 0.000000 0.000000 0.000000
 CHANNELS 6 Xposition Yposition Zposition Yrotation Xrotation Zrotation
 JOINT Chest
 {
  OFFSET 0.000000 9.585900 0.002600
  CHANNELS 3 Yrotation Xrotation Zrotation
  JOINT Chest2
  {
   OFFSET 0.000000 9.601200 -0.005300
   CHANNELS 3 Yrotation Xrotation Zrotation
   JOINT Chest3
   {
    OFFSET 0.000000 9.561800 0.000000
    CHANNELS 3 Yrotation Xrotation Zrotation
    JOINT Chest4
    {
     OFFSET 0.000000 9.552100 0.000000
     CHANNELS 3 Yrotation Xrotation Zrotation
     JOINT Neck
     {
      OFFSET 0.000000 14.453000 0.000000
      CHANNELS 3 Yrotation Xrotation Zrotation
      JOINT Head
      {
       OFFSET 0.000000 8.936500 -0.011300
       CHANNELS 3 Yrotation Xrotation Zrotation
       End Site
       {
        OFFSET 0.000000 17.073600 -0.006000
       }
      }
     }
     JOINT RightCollar
     {
      OFFSET -2.921100 9.558500 0.000000
      CHANNELS 3 Yrotation Xrotation Zrotation
      JOINT RightShoulder
      {
       OFFSET -13.519700 0.000000 0.000000
       CHANNELS 3 Yrotation Xrotation Zrotation
       JOINT RightElbow
       {
        OFFSET 0.000000 -29.696600 0.000000
        CHANNELS 3 Yrotation Xrotation Zrotation
        JOINT RightWrist
        {
         OFFSET 0.000000 -24.004700 0.000000
         CHANNELS 3 Yrotation Xrotation Zrotation
         End Site
         {
          OFFSET 0.000000 -17.728500 0.000000
         }
        }
       }
      }
     }
     JOINT LeftCollar
     {
      OFFSET 2.921100 9.558500 0.000000
      CHANNELS 3 Yrotation Xrotation Zrotation
      JOINT LeftShoulder
      {
       OFFSET 13.519700 0.000000 0.000000
       CHANNELS 3 Yrotation Xrotation Zrotation
       JOINT LeftElbow
       {
        OFFSET 0.000000 -29.696600 0.000000
        CHANNELS 3 Yrotation Xrotation Zrotation
        JOINT LeftWrist
        {
         OFFSET 0.000000 -24.004700 0.000000
         CHANNELS 3 Yrotation Xrotation Zrotation
         End Site
         {
          OFFSET 0.000000 -17.728500 0.000000
         }
        }
       }
      }
     }
    }
   }
  }
 }
 JOINT RightHip
 {
  OFFSET -7.771700 -0.012900 -0.001300
  CHANNELS 3 Yrotation Xrotation Zrotation
  JOINT RightKnee
  {
   OFFSET 0.000000 -40.869800 0.001200
   CHANNELS 3 Yrotation Xrotation Zrotation
   JOINT RightAnkle
   {
    OFFSET 0.000000 -39.717900 0.002100
    CHANNELS 3 Yrotation Xrotation Zrotation
    JOINT RightToe
    {
     OFFSET 0.000000 -4.965400 11.033500
     CHANNELS 3 Yrotation Xrotation Zrotation
     End Site
     {
      OFFSET 0.000000 -1.423100 5.872300
     }
    }
   }
  }
 }
 JOINT LeftHip
 {
  OFFSET 7.771700 -0.012900 -0.001300
  CHANNELS 3 Yrotation Xrotation Zrotation
  JOINT LeftKnee
  {
   OFFSET 0.000000 -40.869800 0.001200
   CHANNELS 3 Yrotation Xrotation Zrotation
   JOINT LeftAnkle
   {
    OFFSET 0.000000 -39.717900 0.002100
    CHANNELS 3 Yrotation Xrotation Zrotation
    JOINT LeftToe
    {
     OFFSET 0.000000 -4.965400 11.033500
     CHANNELS 3 Yrotation Xrotation Zrotation
     End Site
     {
      OFFSET 0.000000 -1.423100 5.872300
     }
    }
   }
  }
 }
}
MOTION
Frames: 15
Frame Time: 0.008333
0.000000 85.388000 0.000000 0.000000 -5.767877 0.000000 0.000000 11.653817 0.000000 0.000000 -5.885947 0.000000 0.000000 -0.000000 0.000000 0.000000 -0.000000 0.000000 0.000000 12.528835 0.000000 0.000000 0.711642 0.000000 0.000000 -0.000000 0.000000 0.000000 0.000000 -90.000000 0.000000 -2.309062 0.000000 0.000000 2.309062 0.000000 0.000000 -0.000000 0.000000 0.000000 -0.000000 90.000000 0.000000 -2.309062 0.000000 0.000000 2.309062 0.000000 0.000000 8.520406 0.000000 0.000000 1.905762 0.000000 -0.000000 -4.658285 0.000000 0.000000 -0.000000 0.000000 0.000000 8.520406 0.000000 0.000000 1.905762 0.000000 -0.000000 -4.658285 0.000000 0.000000 -0.000000 0.000000
-208.862840 57.678425 -69.026375 159.823933 -6.769435 0.916305 3.044948 6.463684 1.578695 0.114041 0.277976 0.032827 0.186773 0.478537 0.046583 2.515298 6.183346 0.785862 1.575956 16.918290 -1.097112 3.257160 -4.318161 -2.586493 2.342162 7.984558 1.194333 -0.245879 -7.576175 -12.330704 -79.143968 -77.796305 116.092866 1.794368 4.413885 -2.023828 -5.038496 7.597745 -2.653177 6.355042 -3.850063 5.775004 51.769945 -65.166731 -94.031268 -0.190044 6.412234 14.500030 -19.604251 -64.764758 9.980029 -31.341275 73.207252 -30.767484 -2.358565 -8.101762 -3.315145 -0.268809 0.834749 -0.130511 -3.116846 -67.169491 17.443807 40.725550 66.454559 33.858594 -18.249596 -9.851370 3.655485 -0.301051 -1.312876 -0.113717
-208.867804 57.678911 -69.024866 159.839341 -6.764784 0.916916 3.025334 6.456222 1.571934 0.109612 0.274801 0.029141 0.186562 0.478432 0.047498 2.509382 6.183403 0.783519 1.566082 16.947279 -1.108605 3.269514 -4.274906 -2.589214 2.355146 7.989818 1.200715 -0.251466 -7.599748 -12.286120 -79.097200 -77.816073 116.037787 1.796563 4.422289 -2.019507 -5.054300 7.599711 -2.656515 6.366027 -3.851684 5.782051 51.788241 -65.165357 -94.066787 -0.115899 6.311944 14.663208 -19.617252 -64.768134 9.978505 -31.342807 73.202134 -30.769072 -2.365160 -8.106282 -3.314985 -0.259931 0.840584 -0.126409 -3.081870 -67.177264 17.407135 40.703392 66.442450 33.824808 -18.260922 -9.775221 3.675033 -0.312008 -1.311885 -0.120783
-208.872460 57.679717 -69.025238 159.849362 -6.772956 0.916367 3.007753 6.459538 1.566015 0.109398 0.274663 0.029030 0.192133 0.482134 0.051142 2.497170 6.181968 0.776396 1.578704 16.953876 -1.103843 3.260349 -4.224435 -2.596278 2.357532 7.985545 1.208439 -0.243436 -7.601992 -12.268837 -79.068404 -77.827335 116.008623 1.783723 4.390555 -2.036766 -5.061742 7.598899 -2.655779 6.332497 -3.854737 5.786492 51.836795 -65.172678 -94.086292 -0.065334 6.221853 14.784347 -19.621211 -64.760267 9.969991 -31.345592 73.200616 -30.772257 -2.366816 -8.105344 -3.312403 -0.255655 0.839873 -0.126432 -3.037530 -67.172392 17.365310 40.676006 66.435139 33.786550 -18.246225 -9.697260 3.700142 -0.316445 -1.313140 -0.128761
-208.876580 57.680668 -69.026456 159.841203 -6.787634 0.914014 3.007454 6.470712 1.564211 0.109166 0.274639 0.028900 0.191600 0.482216 0.050975 2.499979 6.184530 0.777514 1.570441 16.972026 -1.109455 3.271864 -4.228693 -2.594458 2.337827 7.969236 1.204779 -0.221524 -7.592632 -12.245777 -79.145380 -77.819143 116.067163 1.764014 4.348745 -2.056621 -5.079575 7.591193 -2.660595 6.300456 -3.850168 5.793225 51.881410 -65.175617 -94.082148 -0.045842 6.153088 14.847024 -19.609720 -64.746170 9.963630 -31.336625 73.199361 -30.760546 -2.373660 -8.096894 -3.317188 -0.248513 0.834367 -0.122166 -2.981251 -67.159866 17.327587 40.644300 66.430955 33.758310 -18.242128 -9.629609 3.709949 -0.308942 -1.308071 -0.129353
-208.881463 57.681645 -69.028249 159.838225 -6.804292 0.915374 2.999736 6.479277 1.551309 0.109137 0.276241 0.031336 0.191870 0.483604 0.052159 2.504163 6.189143 0.781499 1.561806 16.990040 -1.114980 3.270267 -4.194370 -2.597082 2.334447 7.960239 1.200988 -0.223521 -7.595550 -12.202975 -79.189861 -77.824063 116.105927 1.769236 4.368669 -2.049914 -5.100645 7.579570 -2.666498 6.282841 -3.841795 5.803555 51.965904 -65.208481 -94.150372 -0.018817 6.082284 14.912234 -19.590357 -64.732570 9.941905 -31.324961 73.201212 -30.745546 -2.380636 -8.090635 -3.318318 -0.247516 0.829339 -0.120112 -2.921847 -67.145518 17.282649 40.611409 66.427328 33.728365 -18.252056 -9.560835 3.715601 -0.304737 -1.302802 -0.126573
-208.889156 57.681624 -69.022767 159.879068 -6.774380 0.912685 2.957265 6.445017 1.540439 0.110155 0.279021 0.036693 0.190594 0.482700 0.050512 2.480322 6.190450 0.760573 1.562748 17.018023 -1.112753 3.280521 -4.176046 -2.593471 2.353394 7.950278 1.213317 -0.220375 -7.597201 -12.159305 -79.324114 -77.800049 116.208035 1.794823 4.416840 -2.022817 -5.099548 7.568764 -2.652773 6.267632 -3.833598 5.814429 52.176360 -65.309386 -94.364674 0.066259 6.039539 14.986932 -19.634863 -64.765307 9.945319 -31.313603 73.202677 -30.728168 -2.380986 -8.082638 -3.313738 -0.248227 0.824883 -0.122344 -2.858333 -67.179228 17.206812 40.565049 66.398050 33.668855 -18.274248 -9.483543 3.750599 -0.297335 -1.280806 -0.131337
-208.891798 57.682221 -69.022436 159.887654 -6.782725 0.897612 2.949665 6.451136 1.552235 0.108298 0.275122 0.028451 0.185535 0.477712 0.042139 2.476757 6.197498 0.766445 1.559801 17.032393 -1.112944 3.275195 -4.145659 -2.591599 2.355816 7.940878 1.215993 -0.224783 -7.598657 -12.111948 -79.333789 -77.809281 116.220758 1.792877 4.418877 -2.030405 -5.110948 7.558015 -2.645838 6.273587 -3.823375 5.821080 52.296483 -65.363031 -94.489328 0.093232 5.992343 15.000962 -19.662493 -64.753437 9.967163 -31.319523 73.200357 -30.737736 -2.370554 -8.072522 -3.301161 -0.257643 0.817372 -0.128121 -2.847077 -67.171379 17.204146 40.539187 66.387839 33.640027 -18.271887 -9.434428 3.757974 -0.304252 -1.255440 -0.131544
-208.894032 57.682918 -69.024108 159.882710 -6.801929 0.888300 2.950371 6.462428 1.552007 0.102838 0.268868 0.020033 0.194594 0.489714 0.058429 2.465196 6.195587 0.756462 1.549864 17.048994 -1.116456 3.254094 -4.093978 -2.592758 2.363962 7.937815 1.222524 -0.243067 -7.614772 -12.049445 -79.267634 -77.837636 116.168423 1.787594 4.413158 -2.031884 -5.120486 7.546174 -2.639836 6.278575 -3.812620 5.828836 52.363096 -65.386196 -94.548871 0.082776 5.928180 14.978349 -19.661611 -64.732372 9.969955 -31.317766 73.200961 -30.737012 -2.359120 -8.067415 -3.296649 -0.257022 0.814139 -0.128383 -2.810410 -67.152963 17.191961 40.495324 66.387893 33.605470 -18.297566 -9.391599 3.744845 -0.292300 -1.262112 -0.113815
-208.898642 57.683286 -69.024963 159.891296 -6.810473 0.891740 2.936345 6.465075 1.538908 0.103163 0.267789 0.020567 0.193630 0.491072 0.057602 2.459392 6.196991 0.753358 1.542606 17.062237 -1.115277 3.232554 -4.060897 -2.588552 2.370634 7.934292 1.228556 -0.243903 -7.616076 -12.027845 -79.250576 -77.841991 116.153149 1.774505 4.399558 -2.038019 -5.118463 7.542231 -2.632091 6.248078 -3.819151 5.846723 52.443337 -65.394358 -94.600655 0.070090 5.867991 14.945109 -19.646305 -64.728635 9.944578 -31.325398 73.203238 -30.741981 -2.361737 -8.068275 -3.294336 -0.258598 0.814316 -0.124753 -2.757082 -67.147174 17.150027 40.481658 66.378312 33.588774 -18.340019 -9.336539 3.728166 -0.289600 -1.277101 -0.087217
-208.900087 57.683608 -69.026105 159.901181 -6.825648 0.880545 2.920687 6.466476 1.535699 0.106888 0.273128 0.025705 0.190594 0.491302 0.057832 2.460417 6.202325 0.755612 1.528491 17.073072 -1.119150 3.233824 -4.053283 -2.583740 2.345200 7.902573 1.218476 -0.240679 -7.606504 -11.968001 -79.130254 -77.871862 116.054572 1.762185 4.382909 -2.047861 -5.122410 7.534821 -2.630329 6.226412 -3.831566 5.864005 52.544197 -65.426088 -94.695210 0.086369 5.825118 14.922759 -19.656031 -64.711056 9.945636 -31.312297 73.207571 -30.724362 -2.368784 -8.069140 -3.295604 -0.254906 0.812596 -0.122772 -2.765024 -67.132731 17.160102 40.506467 66.364945 33.601801 -18.341803 -9.296234 3.721469 -0.284635 -1.215787 -0.089502
-208.901970 57.683764 -69.027394 159.901459 -6.839009 0.875717 2.920269 6.477793 1.539147 0.106513 0.270726 0.023453 0.187330 0.478187 0.045725 2.461733 6.217299 0.767162 1.514614 17.081240 -1.122907 3.200679 -4.016270 -2.574657 2.340189 7.889591 1.217026 -0.235132 -7.595493 -11.956831 -79.159855 -77.854227 116.080561 1.754015 4.382718 -2.052421 -5.145410 7.504424 -2.637474 6.226773 -3.828712 5.890422 52.641330 -65.453010 -94.790665 0.102507 5.784088 14.901411 -19.659065 -64.698132 9.948372 -31.314362 73.209312 -30.727011 -2.372107 -8.067386 -3.295886 -0.251567 0.809882 -0.122038 -2.753959 -67.120411 17.159503 40.521379 66.358729 33.604761 -18.335196 -9.258977 3.717744 -0.291886 -1.208862 -0.085839
-208.903702 57.683733 -69.028426 159.897595 -6.849595 0.872172 2.923031 6.478583 1.534803 0.107121 0.275546 0.027785 0.187162 0.477293 0.046613 2.453384 6.199201 0.750507 1.507271 17.108607 -1.110596 3.164185 -3.976360 -2.566279 2.346188 7.903473 1.233510 -0.236351 -7.603399 -11.939665 -79.104130 -77.848013 116.032548 1.743043 4.372359 -2.063990 -5.139799 7.521412 -2.622968 6.215014 -3.854576 5.911786 52.738407 -65.469069 -94.889242 0.137891 5.788941 14.903280 -19.658413 -64.688343 9.952208 -31.330036 73.207202 -30.744556 -2.366596 -8.063788 -3.293871 -0.257007 0.806471 -0.121786 -2.726954 -67.110287 17.157820 40.495228 66.362048 33.568329 -18.344168 -9.220931 3.708780 -0.293599 -1.203773 -0.076010
-208.903452 57.683811 -69.031281 159.885719 -6.872978 0.864127 2.932981 6.481529 1.534535 0.106199 0.272371 0.026494 0.189391 0.493966 0.056065 2.450310 6.198723 0.748327 1.487291 17.118649 -1.114067 3.136800 -3.944825 -2.558375 2.349341 7.907646 1.237224 -0.245008 -7.615311 -11.927456 -79.069898 -77.842927 116.011685 1.747118 4.383106 -2.066640 -5.140015 7.520848 -2.622927 6.223105 -3.918496 5.952816 52.884503 -65.486220 -95.057851 0.179844 5.770895 14.879839 -19.649296 -64.663726 9.955664 -31.341216 73.206930 -30.758958 -2.355922 -8.061853 -3.287674 -0.265042 0.803178 -0.124464 -2.680231 -67.084013 17.155831 40.449383 66.365726 33.521029 -18.379852 -9.196403 3.687241 -0.268506 -1.186725 -0.055177
-208.905556 57.683291 -69.031128 159.890818 -6.873450 0.862860 2.927615 6.479374 1.533260 0.104627 0.263626 0.023413 0.186555 0.482010 0.048633 2.450918 6.214855 0.755662 1.481373 17.126563 -1.112272 3.093739 -3.910216 -2.549941 2.350042 7.899642 1.237361 -0.239576 -7.619470 -11.927197 -79.009243 -77.833446 115.942001 1.753475 4.384023 -2.064495 -5.133234 7.519608 -2.621549 6.228225 -3.930119 5.965217 53.039759 -65.538663 -95.221621 0.192712 5.732858 14.843661 -19.659652 -64.664636 9.961223 -31.352694 73.206052 -30.774966 -2.345159 -8.061720 -3.282775 -0.265481 0.801945 -0.125955 -2.658767 -67.082158 17.145688 40.479267 66.343631 33.533641 -18.404942 -9.145509 3.675004 -0.263231 -1.186649 -0.046704
